<?xml version="1.0" standalone="no"?>
<!DOCTYPE svg PUBLIC "-//W3C//DTD SVG 20010904//EN"
 "http://www.w3.org/TR/2001/REC-SVG-20010904/DTD/svg10.dtd">
<svg version="1.0" xmlns="http://www.w3.org/2000/svg"
 width="512.000000pt" height="512.000000pt" viewBox="0 0 512.000000 512.000000"
 preserveAspectRatio="xMidYMid meet">
<metadata>
Created by potrace 1.11, written by Peter Selinger 2001-2013
</metadata>
<g transform="translate(0.000000,512.000000) scale(0.100000,-0.100000)"
fill="#000000" stroke="none">
<path d="M2570 3840 l0 -1280 1275 0 1275 0 0 1280 0 1280 -1275 0 -1275 0 0
-1280z"/>
<path d="M640 3935 l0 -1085 174 0 175 0 4 493 c4 533 6 548 60 638 54 90 133
130 256 130 107 1 170 -34 214 -116 22 -39 22 -49 25 -592 l3 -553 179 0 180
0 0 529 c0 602 -4 653 -67 781 -86 177 -235 261 -463 261 -171 -1 -295 -46
-354 -129 l-31 -44 -3 386 -2 386 -175 0 -175 0 0 -1085z"/>
<path d="M3000 2345 l0 -155 220 0 219 0 4 -742 c3 -828 0 -790 74 -931 58
-109 148 -172 293 -203 124 -27 365 -11 568 37 61 14 57 -2 34 189 -20 155 -6
144 -142 114 -115 -26 -321 -27 -366 -2 -48 26 -81 72 -93 128 -7 35 -11 321
-11 885 l0 835 -400 0 -400 0 0 -155z"/>
<path d="M1160 1880 c-71 -9 -122 -33 -159 -76 l-30 -33 -7 44 -6 45 -159 0
-159 0 0 -775 0 -775 174 0 175 0 3 598 c3 545 5 600 20 629 10 17 28 39 40
47 45 32 123 12 136 -33 4 -14 7 -299 7 -634 l0 -607 158 0 157 0 0 593 c0
559 1 594 19 634 22 47 45 63 91 63 44 0 66 -14 79 -51 8 -22 11 -221 11 -635
l0 -604 180 0 180 0 0 622 c0 637 -4 708 -40 793 -38 89 -108 138 -221 154
-131 18 -239 -19 -300 -104 l-32 -45 -17 28 c-62 98 -165 140 -300 122z"/>
</g>
</svg>
