<?xml version="1.0" standalone="no"?> <!DOCTYPE svg PUBLIC "-//W3C//DTD SVG 1.0//EN" "http://www.w3.org/TR/2001/REC-SVG-20010904/DTD/svg10.dtd" > <svg xmlns="http://www.w3.org/2000/svg" width="100%" height="100%">
<defs >
<font horiz-adv-x="457" ><font-face
    font-family="Blogger Sans"
    units-per-em="1000"
    panose-1="2 0 5 6 3 0 0 2 0 4"
    ascent="760"
    descent="-240"
    alphabetic="0" />
<missing-glyph horiz-adv-x="760" />
<glyph unicode=" " glyph-name="space" horiz-adv-x="300" />
<glyph unicode="!" glyph-name="exclam" horiz-adv-x="227" d="M80 683Q80 696 90 706T114 716Q128 716 137 706T148 683L137 199Q137 189 130 182T114 175Q104 175 98 182T91 199L80 683ZM162 39Q162 19 149 5T116 -9Q96 -9 82 5T68 39Q68 58 82 72T116 86Q136
86 149 72T162 39Z" />
<glyph unicode="&quot;" glyph-name="quotedbl" horiz-adv-x="342" d="M92 736Q95 747 106 754T132 760Q146 758 155 748T160 726L103 479Q101 471 94 467T79 461Q71 463 66 471T62 487L92 736ZM225 736Q228 747 239 754T265 760Q279 758 287 748T293 726L236
479Q234 471 227 467T212 461Q204 463 199 471T195 487L225 736Z" />
<glyph unicode="#" glyph-name="numbersign" horiz-adv-x="541" d="M178 479L225 690Q232 713 256 713Q266 711 274 703T281 683V676L237 479H362L409 690Q416 711 438 713Q450 711 458 703T465 683V676L421 479H466Q478 479 488 470T498 447Q498 433 489 424T466
415H407L380 295H435Q448 295 457 286T467 263Q467 249 458 240T435 231H366L319 17Q312 -6 288 -6L289 -7Q277 -5 269 3T261 25Q261 28 263 32L307 231H182L135 17Q128 -6 104 -6L105 -7Q94 -5 86 3T77 25Q77 28 79 32L123 231H80Q66 231 57 240T47 263Q47 277
57 286T80 295H137L164 415H110Q96 415 87 424T78 447Q78 461 88 470T110 479H178ZM196 295H321L347 415H223L196 295Z" />
<glyph unicode="$" glyph-name="dollar" horiz-adv-x="500" d="M234 20Q208 21 177 25T118 37T73 58T54 89Q54 101 63 111T85 122Q90 122 100 118T119 110Q137 102 164 95T234 86V331Q201 342 169 355T111 388T71 437T55 511Q55 588 103 632T234 685V742Q234 750
240 755T254 761Q262 761 267 756T272 742V685Q294 683 320 679T368 668T406 650T421 623Q421 611 413 602T389 593Q379 593 370 595T353 602Q340 607 322 611T272 620V387Q305 376 337 363T394 330T435 280T451 207Q451 167 438 135T401 80T344 42T272 21V-36Q272
-44 267 -49T254 -54Q246 -54 240 -49T234 -36V20ZM380 199Q380 223 374 240T359 268T339 287T318 300Q312 302 304 306T272 318V87Q380 105 380 199ZM189 418Q197 414 211 409T234 398V619Q212 616 192 609T157 590T134 560T125 517Q125 493 131 477T147 449T168
430T189 418Z" />
<glyph unicode="%" glyph-name="percent" horiz-adv-x="703" d="M196 406Q163 406 138 418T95 450T68 499T59 561Q59 594 68 622T94 672T137 705T196 717Q229 717 254 705T297 672T323 623T332 561Q332 528 324 500T298 451T255 418T196 406ZM514 -9Q481 -9 455
3T412 35T386 84T377 146Q377 179 386 207T412 257T455 290T514 302Q547 302 572 290T615 257T641 208T650 146Q650 113 642 85T616 36T573 3T514 -9ZM209 13V14Q203 3 194 0T174 -2H175Q164 3 158 13T156 36V35L160 43L504 703V702Q517 722 539 716Q549 712 554
701T555 677Q555 676 553 674L209 13ZM196 454Q239 454 258 482T278 563Q278 613 259 641T196 669Q154 669 134 641T114 563Q114 511 134 483T196 454ZM514 39Q556 39 576 67T596 148Q596 199 576 226T514 254Q472 254 452 227T431 148Q431 96 451 68T514 39Z"
/>
<glyph unicode="&amp;" glyph-name="ampersand" horiz-adv-x="642" d="M596 24Q596 10 588 1T566 -9Q555 -9 549 -4T536 9L465 93Q445 73 423 55T375 22T320 0T256 -9Q210 -9 173 5T108 45T67 104T52 177Q52 217 65 249T101 307T152 355T210 393Q170 437 146 478T121
562Q121 598 135 626T172 673T225 703T288 714Q321 714 349 703T399 675T433 635T445 589Q445 575 436 567T414 558Q403 558 396 565T385 582Q377 610 352 633T291 657Q270 657 251 651T218 631T194 600T185 560Q185 528 209 494T268 419L463 193Q487 231 502 262T532
322Q539 337 545 340T560 343Q572 343 581 334T590 312Q590 297 582 276T562 231T535 184T506 142L589 43Q596 36 596 24ZM247 346Q223 333 199 317T157 282T127 238T115 185Q115 158 124 133T151 90T194 60T250 49Q304 49 346 75T425 142L247 346Z" />
<glyph unicode="&apos;" glyph-name="quotesingle" horiz-adv-x="222" d="M93 736Q96 747 107 754T133 760Q147 758 155 748T161 726L104 479Q102 471 95 467T79 461Q71 463 66 471T63 487L93 736Z" />
<glyph unicode="(" glyph-name="parenleft" horiz-adv-x="276" d="M137 219Q137 116 162 11T236 -186Q238 -191 242 -198T246 -209Q246 -223 239 -233T215 -244Q197 -244 187 -229Q158 -180 137 -125T101 -12T80 104T72 219Q72 331 101 448T187 666Q199 683 215
683Q231 683 238 672T246 647Q246 642 243 636T236 623Q188 533 163 428T137 219Z" />
<glyph unicode=")" glyph-name="parenright" horiz-adv-x="275" d="M140 219Q140 323 115 428T42 623Q38 629 35 636T31 647Q31 660 39 671T63 683Q77 683 91 666Q119 617 140 562T176 449T198 333T205 219Q205 163 198 105T177 -12T141 -125T91 -229Q79 -244
63 -244Q47 -244 39 -234T31 -209Q31 -206 34 -199T42 -186Q90 -95 115 10T140 219Z" />
<glyph unicode="*" glyph-name="asterisk" horiz-adv-x="495" d="M437 598Q442 585 434 576T415 562L285 526L369 420Q375 411 375 399T364 379Q353 371 342 374T324 386L250 501L175 387Q168 379 157 376T134 379Q123 387 123 399T130 420L215 526L84 562Q74
567 67 577T63 599Q68 613 78 616T100 616L228 568L221 703Q220 714 227 724T250 734Q265 734 272 724T278 703L271 568L398 616Q409 620 420 617T437 599V598Z" />
<glyph unicode="+" glyph-name="plus" horiz-adv-x="500" d="M220 323H49Q35 323 26 332T17 355Q17 369 27 378T49 387H220V568Q220 580 229 590T253 601Q266 601 275 592T284 568V387H456Q468 387 478 378T488 355Q488 341 479 332T456 323H284V141Q284 128 275
119T253 109Q239 109 230 119T220 141V323Z" />
<glyph unicode="," glyph-name="comma" horiz-adv-x="230" d="M162 39Q162 14 155 -14T137 -66T114 -105T93 -121Q88 -121 84 -119T80 -111Q80 -100 85 -90T98 -67Q103 -58 108 -48T120 -11Q98 -9 83 5T68 39Q68 58 82 72T116 86Q136 86 149 72T162 39Z" />
<glyph unicode="-" glyph-name="hyphen" horiz-adv-x="399" d="M357 294Q357 282 349 274T329 266H74Q61 266 53 274T44 294Q44 307 52 316T74 325H329Q341 325 349 316T357 294Z" />
<glyph unicode="." glyph-name="period" horiz-adv-x="230" d="M162 39Q162 19 149 5T116 -9Q96 -9 82 5T68 39Q68 58 82 72T116 86Q136 86 149 72T162 39Z" />
<glyph unicode="/" glyph-name="slash" horiz-adv-x="280" d="M38 -24Q34 -35 25 -40T4 -44Q-9 -42 -16 -32T-21 -7Q-21 -4 -19 0L244 740Q248 751 257 756T278 759Q290 757 298 745T302 720L38 -24Z" />
<glyph unicode="0" glyph-name="zero" horiz-adv-x="500" d="M253 667Q182 667 151 623T120 508V195Q120 130 154 91T253 51Q317 51 350 90T384 195V508Q384 578 354 622T253 667ZM253 726Q304 726 341 708T403 660T438 588T450 500V195Q450 152 437 115T399 51T338
7T253 -9Q205 -9 168 7T106 50T67 115T54 195V500Q54 546 65 587T101 659T163 708T253 726Z" />
<glyph unicode="1" glyph-name="one" horiz-adv-x="500" d="M282 631L145 544Q135 536 124 531T104 525Q93 525 84 533T75 552Q75 570 91 581L292 710Q302 716 312 716Q328 716 338 706T348 679V25Q348 11 339 2T315 -8Q301 -8 292 1T282 25V631Z" />
<glyph unicode="2" glyph-name="two" horiz-adv-x="500" d="M453 32Q453 18 444 10T421 1H85Q70 1 60 11T50 36Q50 44 51 54T56 73Q69 104 90 134T135 193T185 248T235 299Q259 322 283 345T327 392Q350 418 367 451T384 527Q384 587 351 627T251 667Q222 667
197 662T150 647Q145 645 137 641T123 631Q115 626 107 623T92 619Q80 619 71 627T61 649Q61 666 84 682Q160 726 252 726Q298 726 335 712T397 672T435 612T449 538Q449 476 429 433T377 355Q354 327 333 307T293 268Q245 223 201 174T128 63H421Q435 63 444 54T453
32Z" />
<glyph unicode="3" glyph-name="three" horiz-adv-x="500" d="M235 410Q281 409 319 396T386 358T431 298T447 217Q447 179 435 139T398 67T333 13T238 -8Q223 -8 193 -6T133 4T81 24T58 59Q58 72 66 81T88 91Q94 91 106 85Q132 72 161 61T235 50Q277 50 305 65T350
103T374 155T381 213Q381 288 340 320T235 353Q216 353 198 345Q188 340 184 340T174 340Q166 340 160 345T150 357T147 372T154 389L347 639H103Q89 639 80 648T71 670Q71 684 80 694T103 705H389Q404 705 414 695T424 666Q424 651 416 642L235 410Z" />
<glyph unicode="4" glyph-name="four" horiz-adv-x="500" d="M402 24Q402 10 393 1T370 -8Q356 -8 347 1T337 24V153H75Q59 153 50 164T40 189Q40 191 42 198T48 214L244 705Q249 713 256 718T272 724Q283 724 293 715T304 691Q304 683 303 680L116 215H337V422Q337
436 346 445T370 455Q383 455 392 446T402 422V215H454Q466 215 474 206T483 184Q483 171 475 162T454 153H402V24Z" />
<glyph unicode="5" glyph-name="five" horiz-adv-x="500" d="M447 223Q447 181 436 140T400 66T339 13T249 -8Q234 -8 202 -6T138 4T82 24T58 59Q58 72 66 81T88 91Q94 91 106 85V86Q127 72 155 61T225 50Q270 50 300 64T348 102T373 156T381 219Q381 299 342
338T246 377Q223 377 204 371T167 355L146 341Q139 336 132 332T116 328Q102 328 92 338T82 364L92 669Q93 688 105 697T132 707H378Q392 707 404 700T417 675Q417 659 405 653T378 646H150L142 404Q170 420 196 427T248 434Q291 434 328 420T391 378T432 312T447
223Z" />
<glyph unicode="6" glyph-name="six" horiz-adv-x="500" d="M115 385Q147 411 186 421T261 432Q302 432 338 419T400 378T442 311T458 218Q458 171 446 130T408 58T344 9T254 -9Q193 -9 153 16T89 87T56 195T46 332Q46 518 100 617T264 716Q276 716 301 715T351
708T394 693T413 667Q413 656 405 647T384 638Q379 638 374 639T364 642Q347 647 324 652T277 658Q228 658 197 637T147 579T122 492T115 385ZM113 280Q113 236 118 195T140 123T184 74T258 55Q296 55 322 68T363 104T386 156T393 216Q393 295 356 332T258 370Q213
370 174 352T113 308V280Z" />
<glyph unicode="7" glyph-name="seven" horiz-adv-x="500" d="M449 672Q449 667 449 662T446 653L191 12Q187 2 179 -3T162 -8Q149 -8 140 -1T128 20Q128 28 131 37V36L375 642H87Q75 642 65 651T55 673Q55 688 64 697T87 707H414Q429 707 439 697T449 672Z" />
<glyph unicode="8" glyph-name="eight" horiz-adv-x="500" d="M470 192Q470 149 454 112T409 48T341 6T253 -9Q205 -9 165 5T96 46T50 109T33 188Q33 221 43 248T72 298T114 339T167 373Q120 402 90 442T59 539Q59 580 74 612T115 668T177 703T252 715Q292 715
327 703T388 667T429 612T444 542Q444 491 416 451T337 379Q365 364 389 346T432 304T460 253T470 192ZM380 537Q380 564 370 586T343 624T303 649T253 658Q225 658 202 649T161 625T133 587T123 537Q123 510 134 488T163 449T205 421T256 405Q281 411 304 422T343
451T370 489T380 537ZM405 193Q405 226 392 252T357 296T307 327T249 345Q217 339 190 326T142 293T110 248T98 192Q98 161 110 135T142 90T191 61T253 50Q286 50 314 61T362 91T394 136T405 193Z" />
<glyph unicode="9" glyph-name="nine" horiz-adv-x="500" d="M390 335Q377 318 360 307T323 288T283 278T244 275Q203 275 167 288T104 327T62 394T46 490Q46 536 58 577T94 649T157 698T248 716Q308 716 348 691T413 620T448 510T458 366Q458 179 406 85T241
-9Q229 -9 204 -8T154 -1T110 13T91 39Q91 50 100 59T121 69Q126 69 141 64Q161 59 185 54T238 49Q284 49 313 71T360 133T383 224T390 335ZM392 426Q392 474 384 515T359 587T313 634T244 652Q207 652 182 638T142 602T119 550T112 489Q112 411 149 374T249 337Q294
337 331 354T392 397V426Z" />
<glyph unicode=":" glyph-name="colon" horiz-adv-x="230" d="M162 39Q162 19 149 5T116 -9Q96 -9 82 5T68 39Q68 58 82 72T116 86Q136 86 149 72T162 39ZM162 339Q162 319 149 305T116 291Q96 291 82 305T68 339Q68 358 82 372T116 386Q136 386 149 372T162 339Z" />
<glyph unicode=";" glyph-name="semicolon" horiz-adv-x="230" d="M162 39Q162 14 155 -14T137 -66T114 -105T93 -121Q88 -121 84 -119T80 -111Q80 -100 85 -90T98 -67Q103 -58 108 -48T120 -11Q98 -9 83 5T68 39Q68 58 82 72T116 86Q136 86 149 72T162 39ZM162
339Q162 319 149 305T116 291Q96 291 82 305T68 339Q68 358 82 372T116 386Q136 386 149 372T162 339Z" />
<glyph unicode="&lt;" glyph-name="less" horiz-adv-x="625" d="M534 161Q544 156 550 148T557 132Q557 115 544 104T516 100L105 314Q93 320 83 328T73 353Q73 370 82 377T104 392L515 606Q532 611 544 601T557 574Q557 565 551 557T534 544L154 353L534 161Z" />
<glyph unicode="=" glyph-name="equal" horiz-adv-x="500" d="M415 295Q427 295 437 286T447 263Q447 249 438 240T415 231H90Q76 231 67 240T58 263Q58 277 68 286T90 295H415ZM415 479Q427 479 437 470T447 447Q447 433 438 424T415 415H90Q76 415 67 424T58
447Q58 461 68 470T90 479H415Z" />
<glyph unicode="&gt;" glyph-name="greater" horiz-adv-x="625" d="M478 353L98 544Q87 549 80 557T73 574Q73 591 87 602T116 606L528 392Q540 386 548 378T557 353Q557 336 548 328T527 314L116 100Q101 92 87 103T73 132Q73 140 80 148T98 161L478 353Z" />
<glyph unicode="?" glyph-name="question" horiz-adv-x="462" d="M269 250Q264 240 263 229T262 207Q262 194 253 185T229 175Q215 175 206 184T196 207Q196 216 197 226T202 244Q213 276 233 302T276 354Q285 363 293 372T309 392Q331 418 348 451T366 527Q366
587 333 627T232 667Q204 667 179 662T132 647Q127 645 119 641T105 631Q97 626 89 623T74 619Q62 619 52 627T42 649Q42 658 48 666T66 682Q142 726 233 726Q280 726 316 712T378 672T417 612T431 538Q431 476 411 433T359 355Q351 346 347 341T339 332T333 326T326
320Q309 303 294 287T269 250ZM276 39Q276 19 263 5T230 -9Q210 -9 196 5T182 39Q182 58 196 72T230 86Q250 86 263 72T276 39Z" />
<glyph unicode="@" glyph-name="at" horiz-adv-x="744" d="M516 14Q490 3 449 -4T366 -12Q297 -12 242 11T148 78T89 181T68 313Q68 384 88 443T147 545T243 611T374 635Q450 635 507 611T604 543T663 443T683 321Q683 287 677 258T657 208T621 174T567 162Q535
162 513 174T474 209Q444 178 417 165T361 152Q330 152 306 164T266 198T241 249T232 313Q232 385 269 429T378 474Q412 474 436 462T475 429T498 379T510 317Q511 302 513 286T522 255T539 231T567 221Q596 221 607 246T618 314Q618 370 603 418T557 501T481 556T375
576Q316 576 271 557T195 502T149 419T133 311Q133 252 149 204T196 120T273 66T380 46Q423 46 448 53T491 68Q500 73 503 73T511 76Q521 78 533 74T551 58Q553 42 542 32T516 14ZM444 321Q443 336 441 352T432 383T412 407T374 416Q332 416 314 388T296 310Q296
262 313 235T368 208Q390 208 412 219T456 251Q447 287 444 321Z" />
<glyph unicode="A" glyph-name="A" horiz-adv-x="549" d="M97 15Q92 6 83 -1T65 -9Q51 -9 41 0T30 24Q30 31 32 37L231 667Q237 688 247 702T277 716Q296 716 306 702T324 667L523 37Q523 35 523 31T524 24Q524 9 514 0T489 -9Q480 -9 470 -3T457 15L411 163H142L97
15ZM161 228H392L277 607L161 228Z" />
<glyph unicode="B" glyph-name="B" horiz-adv-x="542" d="M271 400Q297 400 323 407T370 431T404 471T418 528Q418 550 412 570T390 607T349 632T288 642H145V400H271ZM145 335V65H278Q359 65 398 101T437 196Q437 230 425 256T391 299T339 326T274 335H145ZM120
1Q103 1 91 13T79 42V664Q79 682 91 694T120 706H293Q341 706 377 691T436 651T472 594T484 527Q484 495 475 471T448 427T408 392T358 363Q383 354 409 343T456 312T490 266T504 197Q504 156 489 120T447 58T379 16T289 1H120Z" />
<glyph unicode="C" glyph-name="C" horiz-adv-x="482" d="M50 463Q50 520 63 567T104 647T174 698T273 716Q306 716 337 710T393 692T431 667T446 636Q446 624 438 616T417 608Q410 608 406 610T395 617Q393 619 390 620T385 623Q360 640 334 648T278 657Q233
657 202 644T152 605T125 544T117 463V244Q117 200 125 164T152 103T202 65T278 51Q338 51 383 83L394 90Q408 100 417 100Q430 100 438 92T446 72Q446 55 432 41T393 16T338 -1T273 -8Q216 -8 174 10T105 61T64 140T50 244V463Z" />
<glyph unicode="D" glyph-name="D" horiz-adv-x="554" d="M508 263Q508 212 494 165T448 81T364 23T236 1H120Q103 1 91 13T79 42V665Q79 682 91 694T120 707H236Q312 707 364 686T448 630T494 549T508 454V263ZM441 454Q441 493 431 527T399 587T341 628T253
643H145V65H253Q305 65 341 80T399 123T431 186T441 263V454Z" />
<glyph unicode="E" glyph-name="E" horiz-adv-x="474" d="M440 35Q440 20 431 11T407 1H136Q113 1 96 9T79 41V665Q79 681 90 693T120 706H397Q411 706 420 696T429 672Q429 659 420 651T397 642H145V387H377Q390 387 399 378T409 355Q409 341 400 332T377 323H145V65H407Q420
65 430 56T440 35Z" />
<glyph unicode="F" glyph-name="F" horiz-adv-x="474" d="M145 24Q145 10 136 1T113 -9Q99 -9 89 0T79 24V665Q79 681 90 693T120 706H397Q411 706 420 696T429 672Q429 659 420 651T397 642H145V387H377Q390 387 399 378T409 355Q409 341 400 332T377 323H145V24Z" />
<glyph unicode="G" glyph-name="G" horiz-adv-x="520" d="M117 244Q117 200 125 164T152 103T202 65T278 51Q316 51 346 61T401 92V324H294Q282 324 273 332T263 355Q263 368 272 377T294 386H416Q438 386 452 377T466 346V102Q466 73 448 53T402 19T340 -1T273
-8Q216 -8 174 10T105 61T64 140T50 244V463Q50 520 63 567T104 647T174 698T273 716Q306 716 337 710T393 692T431 667T446 636Q446 624 438 616T417 608Q410 608 406 610T395 617Q393 619 390 620T384 623Q360 640 334 648T278 657Q233 657 202 644T152 605T125
544T117 463V244Z" />
<glyph unicode="H" glyph-name="H" horiz-adv-x="580" d="M506 25Q506 11 497 1T473 -9Q460 -9 450 1T439 25V322H145V25Q145 11 136 1T112 -9Q98 -9 89 1T79 25V683Q79 696 88 706T112 716Q126 716 135 706T145 683V386H439V683Q439 696 449 706T473 716Q486
716 496 706T506 683V25V25Z" />
<glyph unicode="I" glyph-name="I" horiz-adv-x="227" d="M80 683Q80 696 90 706T114 716Q128 716 137 706T147 683V24Q147 10 138 1T114 -9Q100 -9 90 0T80 24V683Z" />
<glyph unicode="J" glyph-name="J" horiz-adv-x="385" d="M309 223Q309 169 300 126T267 53T206 7T111 -9Q101 -9 87 -8T61 -4T40 7T31 29Q31 45 40 53T59 61Q61 61 65 61T75 59Q83 57 94 56T122 54Q159 54 182 66T219 100T237 153T242 223V683Q242 697 252 706T276
716Q289 716 299 706T309 683V223Z" />
<glyph unicode="K" glyph-name="K" horiz-adv-x="498" d="M204 337L145 264V25Q145 11 136 1T112 -9Q98 -9 89 1T79 25V683Q79 696 88 706T112 716Q126 716 135 706T145 683V363L418 699Q423 706 431 711T449 716Q458 716 468 709T477 684Q476 671 469 661V662L246
388L487 42H486Q490 35 490 27Q490 15 484 3T461 -9Q450 -9 444 -5T432 6L204 337Z" />
<glyph unicode="L" glyph-name="L" horiz-adv-x="448" d="M437 33Q437 19 428 10T406 1H118Q102 1 91 11T79 39V683Q79 696 89 706T113 716Q127 716 136 706T145 683V64H406Q418 64 427 55T437 33Z" />
<glyph unicode="M" glyph-name="M" horiz-adv-x="699" d="M630 22Q630 9 621 0T598 -9Q584 -9 574 0T563 22V552Q543 509 520 461T474 362T427 264T384 172Q373 152 352 152Q330 152 320 172L140 552V22Q140 9 130 0T105 -9Q92 -9 83 0T74 22V680Q74 696 84 706T110
716Q134 716 146 693V694L353 251L559 695V694Q566 706 575 711T595 716Q609 716 619 706T630 680V22Z" />
<glyph unicode="N" glyph-name="N" horiz-adv-x="600" d="M489 -9Q479 -9 469 -4T454 10L145 581V25Q145 11 135 1T111 -9Q97 -9 88 1T78 25V678Q78 695 88 705T115 716Q140 716 151 695L460 123V682Q460 696 470 706T494 716Q508 716 517 706T526 682V28Q526
12 516 2T489 -9Z" />
<glyph unicode="O" glyph-name="O" horiz-adv-x="551" d="M278 -9Q221 -9 179 10T108 64T65 145T50 244V463Q50 515 62 561T102 641T173 696T278 716Q339 716 382 696T452 642T492 561T505 463V244Q505 191 491 145T449 65T378 11T278 -9ZM278 652Q233 652 203
639T153 600T126 540T117 463V244Q117 202 126 168T156 108T206 69T278 55Q319 55 349 69T399 108T428 167T438 244V463Q438 505 430 540T402 600T353 638T278 652Z" />
<glyph unicode="P" glyph-name="P" horiz-adv-x="530" d="M145 267V26Q145 12 136 2T112 -9Q99 -9 89 1T79 26V664Q79 681 91 693T121 706H271Q332 706 374 688T442 639T480 568T492 484Q492 378 433 323T271 267H145ZM145 331H271Q348 331 387 368T426 485Q426
514 420 542T396 593T348 628T271 642H145V331Z" />
<glyph unicode="Q" glyph-name="Q" horiz-adv-x="551" d="M388 -180Q324 -180 288 -133T247 -8Q198 -2 161 20T100 75T63 152T50 244V463Q50 515 62 561T102 641T173 696T278 716Q339 716 382 696T452 642T492 561T505 463V244Q505 196 493 153T457 77T397 22T314
-7Q316 -71 338 -96T402 -122Q407 -122 411 -122T420 -121H431Q445 -121 454 -129T463 -151Q463 -172 442 -176T388 -180ZM278 652Q233 652 203 639T153 600T126 540T117 463V244Q117 202 126 168T156 108T206 69T278 55Q319 55 349 69T399 108T428 167T438 244V463Q438
505 430 540T402 600T353 638T278 652Z" />
<glyph unicode="R" glyph-name="R" horiz-adv-x="575" d="M511 509Q511 431 468 383T349 320L518 42L517 43Q521 33 521 22Q521 9 508 1T485 -8Q468 -8 458 7L275 318H145V26Q145 12 135 2T111 -9Q98 -9 88 1T78 26V664Q78 681 90 693T118 706H296Q357 706 398
689T465 644T500 581T511 509ZM444 509Q444 533 438 557T415 599T369 630T292 642H145V381H298Q370 381 407 413T444 509Z" />
<glyph unicode="S" glyph-name="S" horiz-adv-x="486" d="M372 188Q372 213 366 231T351 263T331 284T310 298Q294 306 273 314T230 330Q197 341 165 354T106 388T63 441T47 524Q47 615 100 665T247 716Q265 716 293 714T348 704T394 685T413 654Q413 642 405
633T380 623Q372 623 363 625T345 632Q328 639 306 645T253 652Q227 652 203 646T159 626T129 589T117 529Q117 502 123 484T139 453T160 433T181 420Q198 412 219 404T261 388Q293 377 325 364T384 329T426 275T443 195Q443 146 427 108T382 44T313 5T227 -9Q203
-9 172 -6T113 6T66 27T46 58Q46 71 55 81T76 91Q81 91 91 88T113 80Q133 72 161 64T228 55Q300 55 336 90T372 188Z" />
<glyph unicode="T" glyph-name="T" horiz-adv-x="483" d="M210 642H64Q49 642 40 651T30 673Q30 684 40 695T64 706H423Q437 706 447 697T457 673Q457 660 447 651T423 642H276V24Q276 10 267 1T244 -9Q230 -9 220 0T210 24V642Z" />
<glyph unicode="U" glyph-name="U" horiz-adv-x="572" d="M507 228Q507 177 492 134T449 59T381 9T289 -9Q236 -9 195 9T127 58T85 133T70 228V680Q70 696 80 706T105 716Q119 716 128 706T137 680V228Q137 151 174 103T289 55Q328 55 356 68T402 104T430 158T439
228V680Q439 694 448 705T472 716Q486 716 496 705T507 680V228V228Z" />
<glyph unicode="V" glyph-name="V" horiz-adv-x="529" d="M267 99L447 691Q450 702 460 709T479 716Q494 716 504 707T514 683Q514 679 514 675T513 669L314 39Q307 19 297 5T267 -9Q247 -9 237 4T221 39L22 669Q20 675 20 683Q20 698 30 707T55 716Q63 716 72
708T87 691L267 99Z" />
<glyph unicode="W" glyph-name="W" horiz-adv-x="776" d="M392 587Q378 524 362 453T329 309T296 165T266 32Q261 18 251 5T219 -9Q200 -9 188 3T171 32L18 680V684Q18 698 30 705T57 712Q66 712 74 706T87 688L221 110L346 662Q352 687 361 701T392 716Q412 716
422 701T437 662L564 109L697 688Q701 699 708 705T724 712Q738 712 751 705T765 683Q765 682 765 679T764 674V673L612 32Q607 16 596 4T565 -9Q545 -9 534 4T517 33L392 587Z" />
<glyph unicode="X" glyph-name="X" horiz-adv-x="500" d="M83 16Q78 8 71 0T51 -9Q39 -9 30 1T20 25Q20 36 25 43L213 368L40 665L41 664Q36 674 36 684Q36 696 45 706T67 716Q77 716 86 707T103 684L253 416L402 684H401Q407 695 416 705T440 716Q451 716 459
707T468 683Q468 674 464 664L465 665L293 368L481 43Q485 35 485 25Q485 11 476 1T455 -9Q444 -9 436 -1T422 16L253 319L83 16Z" />
<glyph unicode="Y" glyph-name="Y" horiz-adv-x="476" d="M241 -9Q226 -9 216 1T206 26V279L24 665Q20 675 20 682Q20 696 30 706T55 716Q62 716 68 713T79 703V704L241 353L402 704V703Q406 710 412 713T427 716Q440 716 450 706T460 682Q460 678 459 673T457
665L274 275V26Q274 12 265 2T241 -9Z" />
<glyph unicode="Z" glyph-name="Z" horiz-adv-x="484" d="M453 35Q453 20 444 11T420 1H70Q54 1 44 11T34 38Q34 43 37 52T44 66L366 640H69Q55 640 46 649T36 672Q36 686 45 696T69 706H415Q431 706 441 696T451 669Q451 663 448 655T442 642L119 67H420Q434
67 443 58T453 35Z" />
<glyph unicode="[" glyph-name="bracketleft" horiz-adv-x="294" d="M264 -92Q264 -109 250 -116T220 -123H116Q103 -123 94 -114T84 -92V772Q84 790 97 797T130 804H234Q245 804 254 795T264 773Q264 756 250 750T221 743H149V-61H221Q238 -61 251 -67T264 -92Z" />
<glyph unicode="\" glyph-name="backslash" horiz-adv-x="280" d="M-19 718L-21 723Q-23 736 -16 746T5 759Q16 761 25 756T38 740L302 0Q304 -16 298 -29T278 -44Q267 -46 258 -41T244 -24L-19 718Z" />
<glyph unicode="]" glyph-name="bracketright" horiz-adv-x="294" d="M211 -92Q211 -105 203 -114T181 -123H76Q59 -123 45 -116T30 -92Q30 -73 44 -67T75 -61H146V743H75Q59 743 45 749T30 773Q30 791 44 797T76 804H181Q192 804 201 794T211 772V-92V-92Z" />
<glyph unicode="^" glyph-name="asciicircum" horiz-adv-x="326" d="M49 527Q43 519 31 519Q20 519 14 524T7 537Q8 545 13 554T26 572L139 711Q149 724 164 724Q178 724 188 711L302 572Q310 563 314 554T320 537L319 538Q319 519 297 519Q284 519 278 527L164
669L49 527Z" />
<glyph unicode="_" glyph-name="underscore" horiz-adv-x="600" d="M605 -179Q617 -179 626 -188T636 -212Q636 -225 627 -234T605 -243H2Q-12 -243 -21 -234T-31 -212Q-31 -198 -21 -189T2 -179H605Z" />
<glyph unicode="`" glyph-name="grave" horiz-adv-x="197" d="M169 625Q173 621 173 615Q173 603 165 595T147 587Q133 587 119 603L38 691Q34 696 34 703Q34 714 42 722T58 730Q66 730 71 726T83 716L169 625Z" />
<glyph unicode="a" glyph-name="a" horiz-adv-x="482" d="M335 341Q335 460 218 460Q190 460 172 455T137 438Q132 435 127 433T113 430Q102 430 97 438T91 456Q89 472 101 483T133 501T178 511T228 515Q320 515 360 464T400 314V88Q400 49 427 49Q430 49 431
49T435 50Q446 50 451 42T457 23Q457 8 445 2T419 -4Q396 -4 377 11T343 53Q280 -7 200 -7Q124 -7 87 33T50 140V144Q50 290 224 290Q250 290 278 285T335 272V341ZM223 237Q188 237 167 230T134 209T118 179T114 143V139Q114 100 135 75T213 49Q248 49 277 61T335
98V218Q305 228 276 232T223 237Z" />
<glyph unicode="b" glyph-name="b" horiz-adv-x="485" d="M144 147Q144 102 175 77T261 52Q321 52 348 83T376 168V362Q376 409 351 435T270 461Q230 461 199 446T144 404V147ZM79 701Q79 713 87 723T112 733Q128 733 136 723T144 701V466Q178 490 213 502T290
515Q332 515 360 503T407 471T433 422T441 362V168Q441 131 430 99T396 44T340 7T261 -7Q217 -7 184 5T127 38T91 87T79 147V701Z" />
<glyph unicode="c" glyph-name="c" horiz-adv-x="393" d="M50 330Q50 368 60 401T92 459T147 498T228 512Q245 512 268 510T312 501T348 484T363 457Q363 446 355 438T336 430Q331 430 328 430T321 432H322Q303 442 284 449T236 457Q170 457 143 424T115 330V174Q115
114 142 81T236 48Q265 48 284 55T322 72H321Q331 75 336 75Q347 75 355 67T363 47Q363 31 348 21T312 4T268 -4T228 -7Q181 -7 148 7T93 45T61 103T50 174V330Z" />
<glyph unicode="d" glyph-name="d" horiz-adv-x="488" d="M215 511Q240 511 272 506T336 489V701Q336 714 344 723T369 733Q385 733 393 724T401 701V110Q401 87 407 72T431 42Q433 39 434 36T435 28Q435 15 427 8T407 0Q391 0 378 9T355 35Q320 17 282 5T207
-7Q168 -7 139 6T90 44T60 103T50 179V310Q50 355 58 392T85 455T136 496T215 511ZM336 432Q307 444 276 450T225 457Q164 457 140 422T115 310V179Q115 49 223 49Q250 49 280 58T340 81Q337 94 337 99T336 110V432Z" />
<glyph unicode="e" glyph-name="e" horiz-adv-x="435" d="M236 48Q271 48 295 56T346 77Q348 78 351 79T357 80Q369 80 377 72T385 52Q385 35 368 24T326 6T274 -4T226 -7Q184 -7 151 5T96 40T62 91T50 156V348Q50 384 62 414T97 467T154 502T232 515Q314 515
354 472T394 355Q394 287 355 249T228 210Q203 210 174 212T115 221V150Q115 104 145 76T236 48ZM330 355Q330 410 304 434T229 458Q175 458 145 431T115 356V271Q131 269 148 268T182 265T211 264T232 263Q263 263 282 271T312 291T326 320T330 355Z" />
<glyph unicode="f" glyph-name="f" horiz-adv-x="329" d="M80 546Q80 593 93 627T129 685T184 719T253 733Q259 733 273 733T302 729T328 717T339 694Q339 680 330 672T308 664Q295 664 285 666Q275 668 265 669T245 671Q220 671 202 662T171 636T152 599T145
554V483H261Q273 483 281 475T289 452Q289 440 281 432T261 423H145V27Q145 13 137 5T113 -4Q97 -4 89 4T80 27V546Z" />
<glyph unicode="g" glyph-name="g" horiz-adv-x="493" d="M234 515Q269 515 305 506T373 477Q391 510 414 525T451 540Q464 540 472 532T481 511Q481 500 477 496L468 486Q455 474 446 465T430 445T421 422T418 391V327Q418 289 407 257T374 200T318 163T240 149Q217
149 196 153T155 165Q145 148 142 133T138 107Q138 91 144 81T160 65T181 57T202 55H245Q287 55 323 47T386 21T428 -22T443 -84Q443 -121 428 -150T385 -200T321 -232T240 -243Q198 -243 163 -233T103 -204T64 -157T50 -93Q50 -26 107 25Q87 44 80 65T73 104Q73
121 82 143T117 188Q57 243 57 334Q57 373 68 406T101 463T156 501T234 515ZM354 390Q354 394 354 403T357 424Q330 441 302 450T244 459Q183 459 153 426T122 332Q122 276 149 242T240 208Q300 208 327 239T354 325V390ZM204 -4Q177 -4 155 1Q114 -31 114 -82Q114
-185 242 -185Q301 -185 339 -161T378 -86Q378 -42 346 -23T247 -4H204Z" />
<glyph unicode="h" glyph-name="h" horiz-adv-x="507" d="M143 25Q143 11 135 2T113 -7Q99 -7 90 2T80 25V706Q80 718 88 728T111 739Q125 739 134 730T143 706V463Q175 488 210 501T281 515Q360 515 396 469T433 351V25Q433 11 424 2T401 -7Q387 -7 378 2T368
25V350Q368 401 346 428T271 456Q239 456 204 440T143 390V25V25Z" />
<glyph unicode="i" glyph-name="i" horiz-adv-x="245" d="M165 681Q165 664 153 652T124 640Q106 640 94 652T82 681Q82 699 94 711T124 723Q141 723 153 711T165 681ZM156 25Q156 11 147 2T124 -7Q110 -7 101 2T91 25V479Q91 493 100 502T124 512Q137 512 146
503T156 479V25Z" />
<glyph unicode="j" glyph-name="j" horiz-adv-x="245" d="M157 -23Q157 -99 120 -148T18 -208Q12 -209 9 -209T0 -208Q-9 -208 -17 -203T-27 -188Q-31 -171 -22 -163T-2 -153Q43 -142 67 -115T92 -27V479Q92 493 101 502T125 512Q138 512 147 503T157 479V-23ZM166
681Q166 664 154 652T125 640Q107 640 95 652T82 681Q82 699 94 711T125 723Q142 723 154 711T166 681Z" />
<glyph unicode="k" glyph-name="k" horiz-adv-x="439" d="M145 297L345 504Q351 511 364 511Q377 511 385 503T394 481Q394 467 387 460L231 301L408 38Q410 35 412 29T414 19Q415 7 406 0T383 -7Q365 -7 356 8L191 259L145 211V25Q145 11 136 2T113 -7Q99 -7
90 2T80 25V700Q80 714 89 723T113 733Q126 733 135 724T145 700V297Z" />
<glyph unicode="l" glyph-name="l" horiz-adv-x="228" d="M82 700Q82 713 91 723T114 733Q128 733 137 724T146 700V90Q146 55 164 36Q168 30 168 22Q168 9 160 1T139 -7Q131 -7 121 -4T103 9T88 38T82 90V700Z" />
<glyph unicode="m" glyph-name="m" horiz-adv-x="778" d="M125 466Q161 489 199 502T278 515Q318 515 346 501T396 459Q431 485 468 500T547 515Q627 515 668 469T710 347V25Q710 11 703 3T678 -6Q662 -6 654 2T645 25V345Q645 392 621 424T544 457Q509 457 476
440T423 397Q425 386 426 374T428 347V25Q428 11 421 3T396 -6Q379 -6 371 2T363 25V324Q363 353 360 377T347 419T319 447T270 457Q235 457 201 443T143 411Q146 393 146 375V25Q146 11 138 3T114 -6Q97 -6 89 2T81 25V375Q81 401 78 418T63 451Q57 458 57 468Q57
481 66 489T86 497Q96 497 106 490T125 466Z" />
<glyph unicode="n" glyph-name="n" horiz-adv-x="509" d="M129 464Q166 490 204 501T279 513Q357 513 395 462T434 326V25Q434 11 426 3T402 -6Q386 -6 378 2T369 25V326Q369 389 344 423T267 457Q235 457 205 444T145 409Q148 392 148 375V25Q148 11 140 3T116
-6Q99 -6 91 2T83 25V375Q83 401 80 418T65 451Q59 458 59 468Q59 481 68 489T88 497Q98 497 109 489T129 464Z" />
<glyph unicode="o" glyph-name="o" horiz-adv-x="464" d="M235 -7Q190 -7 156 6T98 43T62 99T50 168V340Q50 377 62 409T97 465T155 502T235 516Q280 516 315 503T373 465T408 409T420 340V168Q420 131 408 99T373 44T315 7T235 -7ZM235 52Q295 52 325 83T355
168V341Q355 395 325 426T235 458Q175 458 145 427T115 341V168Q115 114 145 83T235 52Z" />
<glyph unicode="p" glyph-name="p" horiz-adv-x="478" d="M270 -6Q243 -6 211 -1T148 15V-184Q148 -197 140 -206T116 -215Q99 -215 91 -206T83 -184V373Q83 399 80 416T65 449Q59 456 59 466Q59 479 68 487T88 495Q98 495 108 487T126 467Q164 487 202 501T279
515Q318 515 347 502T395 463T424 404T434 328V194Q434 150 426 113T399 50T349 9T270 -6ZM148 72Q175 60 207 54T260 48Q320 48 344 83T369 194V328Q369 392 343 425T262 459Q235 459 204 448T143 419Q145 408 146 397T148 373V72Z" />
<glyph unicode="q" glyph-name="q" horiz-adv-x="485" d="M347 357Q347 404 316 430T231 457Q171 457 143 425T115 336V173Q115 115 139 82T224 48Q258 48 289 60T347 100V357ZM412 -184Q412 -197 404 -206T380 -215Q363 -215 355 -206T347 -184V37Q315 17 281
6T208 -6Q163 -6 133 7T84 45T58 102T50 173V336Q50 374 61 406T95 463T152 501T231 515Q274 515 307 503T364 469T400 419T412 357V-184Z" />
<glyph unicode="r" glyph-name="r" horiz-adv-x="337" d="M149 25Q149 11 140 2T117 -7Q103 -7 94 2T84 25V373Q84 399 81 416T66 449Q60 456 60 466Q60 479 69 487T90 495Q100 495 110 487T129 464Q164 487 204 499T272 511Q298 511 308 502T318 479Q318 464
309 454T286 445Q269 445 253 445T221 441T187 429T148 405V404V400Q148 397 148 391T149 373V25Z" />
<glyph unicode="s" glyph-name="s" horiz-adv-x="406" d="M59 374Q59 438 99 476T218 515Q237 515 259 513T301 504T334 489T347 465Q347 453 339 445T318 436Q313 436 310 437T303 440Q286 448 268 454T221 460Q170 460 146 440T122 379Q122 352 134 336T175
304Q205 289 237 278T298 250T344 207T362 135Q362 69 321 31T197 -7Q178 -7 153 -5T106 3T68 19T52 44Q52 55 60 64T83 74Q86 74 89 73Q112 64 137 56T197 48Q243 48 271 67T299 132Q299 164 287 180T258 205Q229 220 194 231T129 259T79 302T59 374Z" />
<glyph unicode="t" glyph-name="t" horiz-adv-x="321" d="M81 633Q81 646 89 655T113 665Q129 665 137 656T145 633V483H261Q273 483 281 475T290 452Q290 440 282 432T261 423H145V209Q145 167 148 138T161 91T189 65T238 57Q243 57 248 57T258 58Q265 58 273
57T287 53T298 44T303 28Q303 7 287 2T253 -3Q201 -3 168 10T116 48T89 112T81 202V633Z" />
<glyph unicode="u" glyph-name="u" horiz-adv-x="509" d="M366 480Q366 494 374 503T399 512Q415 512 423 503T431 480V120Q431 101 432 90T434 72T438 62T442 55Q447 50 452 43T457 27Q457 15 448 7T427 -1Q414 -1 404 8T384 32Q348 11 310 2T236 -7Q158 -7 119
44T79 179V480Q79 494 87 503T112 512Q128 512 136 503T144 480V179Q144 117 170 83T247 49Q279 49 309 59T368 87Q367 95 367 102T366 120V480Z" />
<glyph unicode="v" glyph-name="v" horiz-adv-x="430" d="M266 35Q258 12 248 3T220 -7Q188 -7 175 34L32 474Q27 489 37 500T64 512Q72 512 80 508T92 491L220 78L346 491Q348 499 355 506T375 512Q388 511 397 502T407 479Q407 474 406 471L266 35Z" />
<glyph unicode="w" glyph-name="w" horiz-adv-x="655" d="M517 33Q511 13 502 3T473 -7Q460 -7 449 0T433 22L334 411Q323 367 311 317T286 216T260 115T234 22Q226 -7 193 -7Q176 -7 165 4T148 33L28 479V481Q28 493 37 502T61 512Q70 512 78 506T91 489L194
86Q223 193 247 290T295 481Q299 494 308 503T334 512Q348 512 357 503T371 481Q380 444 389 405T411 320T438 216T473 86L575 489Q577 499 586 505T605 512Q618 512 627 503T636 479V477L517 33Z" />
<glyph unicode="x" glyph-name="x" horiz-adv-x="431" d="M46 466Q42 471 42 481Q42 495 52 503T73 512Q85 512 91 506T105 489L220 311L335 489Q342 500 348 506T367 512Q378 512 388 504T398 481Q398 471 394 466L256 259L404 40Q407 35 407 27Q407 13 398 3T374
-7Q362 -7 356 -2T341 16L218 205L90 9Q80 -7 64 -7Q50 -7 40 2T30 25Q30 31 34 38L184 259L46 466Z" />
<glyph unicode="y" glyph-name="y" horiz-adv-x="412" d="M273 60Q256 5 238 -42T195 -125T137 -181T58 -202Q43 -202 34 -194T24 -171Q24 -160 32 -151T54 -140Q81 -139 100 -132T135 -108T162 -67T187 -5L23 471Q21 473 21 476T20 482Q20 496 29 504T53 512Q62
512 70 506T82 491L218 76Q231 124 246 176T278 283T309 390T338 491Q343 499 351 505T368 512Q380 512 390 503T400 479Q400 475 400 473T399 469L273 60Z" />
<glyph unicode="z" glyph-name="z" horiz-adv-x="384" d="M367 471Q367 466 365 458T360 446L98 59H339Q352 59 360 50T369 29Q369 16 361 8T339 0H54Q40 0 30 10T20 35Q20 39 21 45T26 57L290 446H60Q47 446 39 454T30 475Q30 489 38 497T60 505H333Q347 505
357 497T367 471Z" />
<glyph unicode="{" glyph-name="braceleft" horiz-adv-x="417" d="M69 210Q55 210 46 217T37 239Q37 253 46 261T69 269Q112 269 133 292T157 368Q158 388 159 411T162 455L168 557Q173 611 215 643T322 675Q340 675 357 669T374 639Q374 628 371 623T362 616T351
614T340 615Q331 616 322 617T311 618Q297 618 283 613T258 599T240 577T232 545Q230 502 228 459T224 374Q221 329 201 295T140 239Q180 219 200 184T224 104L232 -66Q234 -101 257 -120T310 -139Q317 -139 325 -139T340 -137Q350 -135 362 -137T374 -160Q374
-184 357 -190T322 -196Q257 -196 215 -165T168 -79L157 110Q154 163 133 186T69 210Z" />
<glyph unicode="|" glyph-name="bar" horiz-adv-x="227" d="M85 732Q85 743 93 752T114 761Q127 761 135 752T143 732V-216Q143 -227 135 -235T114 -244Q102 -244 94 -236T85 -216V732Z" />
<glyph unicode="}" glyph-name="braceright" horiz-adv-x="417" d="M352 210Q309 210 288 187T264 110Q262 63 259 16T253 -79Q249 -133 207 -164T100 -196Q80 -196 64 -190T47 -160Q47 -140 59 -138T81 -137Q88 -138 96 -138T111 -139Q126 -139 139 -134T164
-120T182 -97T190 -66Q192 -24 194 19T198 104Q200 150 220 184T281 239Q241 260 221 294T198 374L190 545Q188 580 164 599T110 618Q108 618 100 617T81 615Q76 614 70 614T59 616T51 623T47 639Q47 663 63 669T100 675Q164 675 206 643T253 557L259 455L264 368Q267
316 288 293T352 269Q366 269 375 261T384 239Q384 225 375 218T352 210Z" />
<glyph unicode="~" glyph-name="asciitilde" horiz-adv-x="454" d="M391 353Q391 338 382 326T360 306T329 292T297 285L298 286Q276 286 259 292T225 308Q214 313 201 318T168 326Q154 326 142 319T120 304Q115 299 110 296T97 292Q85 292 77 299T67 319Q67 334
75 347T96 369T126 384T161 390Q178 390 197 383T230 369Q241 364 255 358T283 350Q306 350 318 356T339 371Q344 375 350 379T363 385Q374 384 382 375T391 353Z" />
</font>
</defs>
</svg>
